<?xml version="1.0" encoding="UTF-8"?>
<svg version="1.1" xmlns="http://www.w3.org/2000/svg" width="512" height="512" viewBox="0 0 512 512">
  <path fill="#1373e3" d="M415.686 317.502c0 59.521-73.169 106.596-159.685 106.596s-159.684-47.075-159.684-106.596c0-59.542 73.169-160.714 159.684-160.714s159.685 101.172 159.685 160.714z"></path>
  <path fill="#ffffff" d="M375.357 298.364c0 43.559-53.117 78.524-118.47 78.524s-118.471-34.964-118.471-78.524c0-43.58 53.117-115.562 118.471-115.562s118.47 71.982 118.47 115.562z"></path>
  <path fill="#1373e3" d="M249.066 321.453v-87.975h21.303v87.975h-21.303z"></path>
  <path fill="#1373e3" d="M302.545 321.453v-87.975h21.302v87.975h-21.302z"></path>
  <path fill="#1373e3" d="M196.59 321.453v-87.975h21.302v87.975h-21.302z"></path>
</svg>